<?xml version="1.0" encoding="utf-8"?>
<!-- Generator: Adobe Illustrator 16.0.0, SVG Export Plug-In . SVG Version: 6.00 Build 0)  -->
<!DOCTYPE svg PUBLIC "-//W3C//DTD SVG 1.1//EN" "http://www.w3.org/Graphics/SVG/1.1/DTD/svg11.dtd">
<svg version="1.1" id="Layer_2" xmlns="http://www.w3.org/2000/svg" xmlns:xlink="http://www.w3.org/1999/xlink" x="0px" y="0px"
	 width="1200px" height="1200px" viewBox="0 0 1200 1200" enable-background="new 0 0 1200 1200" xml:space="preserve">
<g>
	<g>
		<path fill="#36D3DE" d="M702.268,804.751c-129.855,0-235.501-105.642-235.501-235.498c0-129.857,105.646-235.502,235.501-235.502
			c129.87,0,235.527,105.645,235.527,235.502C937.795,699.109,832.138,804.751,702.268,804.751L702.268,804.751z M702.268,342.033
			c-125.29,0-227.219,101.93-227.219,227.22c0,125.288,101.929,227.218,227.219,227.218c125.302,0,227.242-101.931,227.242-227.218
			C929.51,443.963,827.57,342.033,702.268,342.033L702.268,342.033z"/>
	</g>
	<g>
		<path fill="#36D3DE" d="M702.268,804.751c-76.08,0-137.977-105.642-137.977-235.498c0-129.857,61.896-235.502,137.977-235.502
			c76.061,0,137.935,105.645,137.935,235.502C840.202,699.109,778.328,804.751,702.268,804.751L702.268,804.751z M702.268,342.033
			c-71.514,0-129.695,101.93-129.695,227.22c0,125.288,58.181,227.218,129.695,227.218c71.492,0,129.655-101.931,129.655-227.218
			C831.923,443.963,773.76,342.033,702.268,342.033L702.268,342.033z"/>
	</g>
	<g>
		<path fill="#36D3DE" d="M702.268,804.751c-2.287,0-4.142-1.853-4.142-4.14V337.892c0-2.287,1.854-4.141,4.142-4.141
			c129.87,0,235.527,105.645,235.527,235.502C937.795,699.109,832.138,804.751,702.268,804.751L702.268,804.751z M706.411,342.069
			v454.366c123.397-2.22,223.099-103.276,223.099-227.182C929.51,445.347,829.809,344.287,706.411,342.069L706.411,342.069z"/>
	</g>
	<g>
		<path fill="#36D3DE" d="M918.57,654.936H485.95c-1.724,0-3.267-1.068-3.875-2.68c-10.158-26.971-15.309-54.896-15.309-83.002
			c0-28.138,5.165-56.073,15.347-83.031c0.609-1.611,2.152-2.678,3.874-2.678H918.57c1.723,0,3.264,1.066,3.876,2.678
			c10.185,26.963,15.35,54.898,15.35,83.031c0,28.14-5.165,56.065-15.352,83.006C921.833,653.869,920.292,654.936,918.57,654.936
			L918.57,654.936z M488.834,646.655H915.69c9.174-25.172,13.82-51.196,13.82-77.402c0-26.2-4.646-52.233-13.82-77.427H488.868
			c-9.172,25.19-13.82,51.223-13.82,77.427C475.049,595.43,479.685,621.457,488.834,646.655L488.834,646.655z"/>
	</g>
</g>
<g opacity="0.4">
	<path fill="#1E7075" d="M639.842,685.176c0,11.647-9.428,21.075-21.06,21.075H215.734c-11.636,0-21.075-9.428-21.075-21.075V351.29
		c0-11.637,9.438-21.073,21.075-21.073h403.048c11.632,0,21.06,9.436,21.06,21.073V685.176z"/>
</g>
<g>
	<path fill="#FFFFFF" d="M197.409,687.363c-10.325,0-18.725-8.398-18.725-18.725V334.752c0-10.323,8.399-18.723,18.725-18.723
		h403.048c10.315,0,18.709,8.4,18.709,18.723v333.887c0,10.326-8.395,18.725-18.709,18.725H197.409z"/>
	<path fill="#C1E2DE" d="M600.458,318.382c9.017,0,16.36,7.342,16.36,16.37v333.887c0,9.027-7.343,16.372-16.36,16.372H197.409
		c-9.03,0-16.373-7.345-16.373-16.372V334.752c0-9.027,7.343-16.37,16.373-16.37H600.458 M600.458,313.68H197.409
		c-11.636,0-21.075,9.436-21.075,21.072v333.887c0,11.646,9.439,21.075,21.075,21.075h403.048c11.631,0,21.059-9.429,21.059-21.075
		V334.752C621.517,323.116,612.089,313.68,600.458,313.68L600.458,313.68z"/>
</g>
<path fill="#C1E2DE" d="M600.458,313.68H197.409c-11.636,0-21.075,9.436-21.075,21.072v39.918h445.183v-39.918
	C621.517,323.116,612.089,313.68,600.458,313.68z"/>
<g>
	<path fill="#FD6120" d="M219.429,344.834c0,6.493-5.254,11.755-11.756,11.755c-6.484,0-11.749-5.262-11.749-11.755
		c0-6.486,5.265-11.751,11.749-11.751C214.175,333.083,219.429,338.348,219.429,344.834z"/>
	<path fill="#FFC907" d="M252.337,344.834c0,6.493-5.254,11.755-11.752,11.755c-6.489,0-11.753-5.262-11.753-11.755
		c0-6.486,5.265-11.751,11.753-11.751C247.083,333.083,252.337,338.348,252.337,344.834z"/>
	<path fill="#B1BE46" d="M285.247,344.834c0,6.493-5.267,11.755-11.751,11.755c-6.492,0-11.754-5.262-11.754-11.755
		c0-6.486,5.262-11.751,11.754-11.751C279.98,333.083,285.247,338.348,285.247,344.834z"/>
</g>
<rect x="318.155" y="334.255" fill="#FFFFFF" width="272.65" height="21.159"/>
<rect x="200.246" y="407.185" fill="#C1E2DE" width="96.755" height="8.722"/>
<rect x="527.342" y="407.185" fill="#C1E2DE" width="61.461" height="8.722"/>
<rect x="449.767" y="407.185" fill="#C1E2DE" width="61.479" height="8.722"/>
<rect x="372.211" y="407.185" fill="#C1E2DE" width="61.474" height="8.722"/>
<g>
	<g>
		<rect x="200.246" y="449.003" fill="#99D5DC" width="174.953" height="192.592"/>
		<path fill="#8FC4D7" d="M377.55,643.944H197.895V446.651H377.55V643.944L377.55,643.944z M202.597,639.245h170.251V451.354
			H202.597V639.245L202.597,639.245z"/>
	</g>
	<g>
		<path fill="#8FC4D7" d="M375.199,643.944H200.246c-0.931,0-1.773-0.55-2.15-1.397c-0.377-0.853-0.216-1.845,0.41-2.532
			l174.953-192.592c0.654-0.72,1.681-0.96,2.588-0.613c0.906,0.351,1.503,1.223,1.503,2.193v192.592
			C377.55,642.893,376.497,643.944,375.199,643.944L375.199,643.944z M205.557,639.245h167.291v-184.16L205.557,639.245
			L205.557,639.245z"/>
	</g>
	<g>
		<path fill="#8FC4D7" d="M375.199,643.944H200.246c-1.298,0-2.351-1.052-2.351-2.35V449.003c0-0.971,0.597-1.842,1.503-2.193
			c0.901-0.349,1.933-0.107,2.588,0.613l174.953,192.592c0.625,0.688,0.786,1.68,0.409,2.532
			C376.972,643.395,376.129,643.944,375.199,643.944L375.199,643.944z M202.597,639.245h167.292l-167.292-184.16V639.245
			L202.597,639.245z"/>
	</g>
</g>
<rect x="400.822" y="452.666" fill="#FD6120" width="103.796" height="14.172"/>
<rect x="400.822" y="488.693" fill="#C1E2DE" width="187.609" height="8.719"/>
<rect x="400.822" y="515.459" fill="#C1E2DE" width="159.446" height="8.724"/>
<rect x="400.822" y="542.228" fill="#C1E2DE" width="176.685" height="8.722"/>
<g>
	<rect x="400.822" y="566.314" fill="#FD6120" width="60.728" height="25.469"/>
	<rect x="411.003" y="574.683" fill="#FFFFFF" width="40.363" height="8.719"/>
</g>
<g>
	<polygon fill="#299EA6" points="986.055,707.809 925.088,687.999 864.112,668.184 864.774,670.213 864.774,670.213 
		883.928,729.155 903.737,790.129 925.158,748.424 957.717,780.979 966.626,772.068 966.626,772.068 976.905,761.787 
		944.35,729.236 	"/>
	<g>
		<polygon fill="#C1E2DE" points="965.48,718.099 904.509,698.285 843.531,678.469 863.348,739.443 883.161,800.418 
			904.581,758.714 937.136,791.271 956.324,772.079 923.77,739.525 		"/>
		<polygon fill="#FFFFFF" points="904.509,698.285 843.531,678.469 844.194,680.505 946.048,782.357 956.324,772.079 
			923.77,739.525 965.48,718.099 		"/>
	</g>
</g>
<g>
	<g>
		<g>
			<path fill="#36D3DE" d="M402.02,860.917h-66.658c-1.48,0-2.68-1.199-2.68-2.68v-95.363c0-1.48,1.2-2.68,2.68-2.68h66.658
				c1.479,0,2.68,1.199,2.68,2.68v95.363C404.7,859.718,403.5,860.917,402.02,860.917L402.02,860.917z M338.042,855.557h61.299
				v-90.003h-61.299V855.557L338.042,855.557z"/>
		</g>
		<g>
			<path fill="#36D3DE" d="M368.898,859.359c-1.48,0-2.68-1.201-2.68-2.679v-92.25c0-1.479,1.2-2.68,2.68-2.68
				c1.479,0,2.679,1.201,2.679,2.68v92.25C371.577,858.158,370.377,859.359,368.898,859.359L368.898,859.359z"/>
		</g>
		<g>
			<path fill="#36D3DE" d="M402.449,796.707h-67.098c-1.479,0-2.68-1.198-2.68-2.679c0-1.481,1.2-2.68,2.68-2.68h67.098
				c1.479,0,2.68,1.198,2.68,2.68C405.129,795.509,403.929,796.707,402.449,796.707L402.449,796.707z"/>
		</g>
		<g>
			<path fill="#36D3DE" d="M402.449,828.645h-67.098c-1.479,0-2.68-1.201-2.68-2.68s1.2-2.679,2.68-2.679h67.098
				c1.479,0,2.68,1.2,2.68,2.679S403.929,828.645,402.449,828.645L402.449,828.645z"/>
		</g>
	</g>
	<g>
		<g>
			<path fill="#36D3DE" d="M319.479,811.225h-20.814c-1.479,0-2.679-1.198-2.679-2.679c0-1.481,1.2-2.68,2.679-2.68h20.814
				c1.479,0,2.679,1.198,2.679,2.68C322.158,810.026,320.958,811.225,319.479,811.225L319.479,811.225z"/>
		</g>
		<g>
			<path fill="#36D3DE" d="M274.241,744.518c-1.479,0-2.679-1.201-2.679-2.68v-12.215c0-1.479,1.2-2.68,2.679-2.68
				c1.48,0,2.68,1.201,2.68,2.68v12.215C276.921,743.316,275.721,744.518,274.241,744.518L274.241,744.518z"/>
		</g>
		<g>
			<path fill="#36D3DE" d="M343.908,744.518c-1.48,0-2.68-1.201-2.68-2.68v-12.215c0-1.479,1.2-2.68,2.68-2.68
				c1.479,0,2.679,1.201,2.679,2.68v12.215C346.588,743.316,345.388,744.518,343.908,744.518L343.908,744.518z"/>
		</g>
		<g>
			<path fill="#36D3DE" d="M309.08,809.218c-1.48,0-2.68-1.2-2.68-2.679v-73.294c0-1.479,1.2-2.68,2.68-2.68
				c1.479,0,2.679,1.2,2.679,2.68v73.294C311.76,808.018,310.559,809.218,309.08,809.218L309.08,809.218z"/>
		</g>
		<g>
			<path fill="#36D3DE" d="M343.908,732.303h-69.667c-1.479,0-2.679-1.201-2.679-2.68s1.2-2.68,2.679-2.68h69.667
				c1.479,0,2.679,1.201,2.679,2.68S345.388,732.303,343.908,732.303L343.908,732.303z"/>
		</g>
	</g>
</g>
<g>
	<g>
		<path fill="#174F78" d="M738.544,468.031h70.803c2.495,0,4.521-2.02,4.521-4.521c0-2.494-2.025-4.519-4.521-4.519h-70.803
			c-2.497,0-4.524,2.025-4.524,4.519C734.02,466.011,736.047,468.031,738.544,468.031L738.544,468.031z"/>
	</g>
	<g>
		<g>
			<path fill="#FFFFFF" d="M774.128,178.522c-1.248,0-2.264-1.014-2.264-2.263v-18.401c0-1.249,1.016-2.263,2.264-2.263
				s2.264,1.015,2.264,2.263v18.401C776.392,177.508,775.376,178.522,774.128,178.522L774.128,178.522z"/>
		</g>
		<g>
			<path fill="#FFFFFF" d="M802.919,182.366c-0.193,0-0.389-0.024-0.585-0.077c-1.21-0.325-1.924-1.565-1.602-2.772l4.768-17.778
				c0.324-1.208,1.562-1.924,2.773-1.6c1.209,0.324,1.924,1.564,1.601,2.772l-4.767,17.778
				C804.835,181.7,803.919,182.366,802.919,182.366L802.919,182.366z"/>
		</g>
		<g>
			<path fill="#FFFFFF" d="M829.736,193.526c-0.382,0-0.771-0.099-1.13-0.304c-1.081-0.624-1.452-2.008-0.827-3.091l9.2-15.939
				c0.626-1.081,2.011-1.452,3.094-0.828c1.08,0.624,1.451,2.008,0.827,3.091l-9.201,15.938
				C831.28,193.121,830.518,193.526,829.736,193.526L829.736,193.526z"/>
		</g>
		<g>
			<path fill="#FFFFFF" d="M852.758,211.249c-0.581,0-1.157-0.221-1.602-0.662c-0.885-0.885-0.885-2.317,0-3.202l13.007-13.015
				c0.885-0.885,2.315-0.884,3.2-0.001c0.885,0.884,0.885,2.317,0.003,3.201l-13.007,13.016
				C853.917,211.028,853.338,211.249,852.758,211.249L852.758,211.249z"/>
		</g>
		<g>
			<path fill="#FFFFFF" d="M870.402,234.323c-0.782,0-1.541-0.406-1.962-1.131c-0.625-1.083-0.254-2.467,0.83-3.092l15.93-9.204
				c1.083-0.625,2.466-0.253,3.094,0.829c0.624,1.082,0.256,2.466-0.827,3.091l-15.937,9.203
				C871.174,234.225,870.786,234.323,870.402,234.323L870.402,234.323z"/>
		</g>
		<g>
			<path fill="#FFFFFF" d="M881.463,261.178c-1,0-1.916-0.666-2.188-1.677c-0.322-1.208,0.393-2.449,1.602-2.772l17.777-4.765
				c1.204-0.33,2.449,0.391,2.773,1.6c0.322,1.208-0.392,2.449-1.602,2.772l-17.777,4.765
				C881.853,261.153,881.656,261.178,881.463,261.178L881.463,261.178z"/>
		</g>
		<g>
			<path fill="#FFFFFF" d="M903.615,289.986L903.615,289.986l-18.41-0.003c-1.251,0-2.264-1.014-2.264-2.263
				c0-1.25,1.013-2.263,2.264-2.263l0,0l18.41,0.002c1.251,0,2.264,1.014,2.264,2.264
				C905.879,288.973,904.866,289.986,903.615,289.986L903.615,289.986z"/>
		</g>
		<g>
			<path fill="#FFFFFF" d="M899.141,323.54c-0.193,0-0.39-0.025-0.586-0.078l-17.777-4.767c-1.209-0.324-1.924-1.564-1.602-2.772
				c0.324-1.208,1.56-1.926,2.773-1.6l17.778,4.768c1.208,0.325,1.923,1.564,1.602,2.772
				C901.057,322.874,900.141,323.54,899.141,323.54L899.141,323.54z"/>
		</g>
		<g>
			<path fill="#FFFFFF" d="M886.136,354.794c-0.382,0-0.774-0.099-1.13-0.304l-15.93-9.206c-1.085-0.626-1.456-2.01-0.831-3.092
				c0.629-1.081,2.013-1.45,3.091-0.829l15.936,9.206c1.083,0.625,1.452,2.01,0.826,3.092
				C887.68,354.388,886.918,354.794,886.136,354.794L886.136,354.794z"/>
		</g>
		<g>
			<path fill="#FFFFFF" d="M865.501,381.62c-0.581,0-1.157-0.222-1.602-0.662l-13.021-13.01c-0.885-0.885-0.885-2.317,0-3.202
				c0.885-0.885,2.317-0.883,3.202-0.001l13.021,13.01c0.885,0.884,0.885,2.317,0,3.201
				C866.66,381.398,866.081,381.62,865.501,381.62L865.501,381.62z"/>
		</g>
		<g>
			<path fill="#FFFFFF" d="M682.11,381.348c-0.578,0-1.16-0.221-1.602-0.663c-0.882-0.884-0.882-2.317,0.003-3.202l13.021-13.013
				c0.884-0.882,2.315-0.883,3.199,0.001c0.883,0.884,0.883,2.318-0.002,3.202l-13.021,13.013
				C683.269,381.127,682.687,381.348,682.11,381.348L682.11,381.348z"/>
		</g>
		<g>
			<path fill="#FFFFFF" d="M661.541,354.458c-0.782,0-1.544-0.405-1.964-1.133c-0.623-1.083-0.251-2.466,0.832-3.092l15.945-9.195
				c1.089-0.625,2.468-0.252,3.094,0.831c0.622,1.083,0.251,2.466-0.833,3.092l-15.946,9.195
				C662.314,354.362,661.926,354.458,661.541,354.458L661.541,354.458z"/>
		</g>
		<g>
			<path fill="#FFFFFF" d="M648.629,323.166c-1,0-1.914-0.667-2.184-1.679c-0.323-1.208,0.394-2.448,1.603-2.771l17.778-4.757
				c1.208-0.325,2.448,0.394,2.772,1.602c0.322,1.208-0.395,2.448-1.601,2.771l-17.783,4.757
				C649.021,323.141,648.823,323.166,648.629,323.166L648.629,323.166z"/>
		</g>
		<g>
			<path fill="#FFFFFF" d="M662.675,289.599h-18.408c-1.249,0-2.264-1.014-2.264-2.264s1.015-2.263,2.264-2.263h18.408
				c1.251,0,2.263,1.014,2.263,2.263S663.926,289.599,662.675,289.599L662.675,289.599z"/>
		</g>
		<g>
			<path fill="#FFFFFF" d="M666.516,260.812c-0.193,0-0.389-0.025-0.586-0.077l-17.778-4.77c-1.208-0.325-1.923-1.566-1.601-2.773
				c0.324-1.207,1.565-1.927,2.773-1.6l17.778,4.771c1.209,0.324,1.923,1.565,1.602,2.772
				C668.432,260.146,667.516,260.812,666.516,260.812L666.516,260.812z"/>
		</g>
		<g>
			<path fill="#FFFFFF" d="M677.672,233.996c-0.385,0-0.773-0.098-1.128-0.303l-15.941-9.208c-1.083-0.625-1.453-2.009-0.827-3.092
				c0.625-1.081,2.013-1.449,3.093-0.828l15.937,9.208c1.083,0.625,1.455,2.009,0.829,3.092
				C679.212,233.59,678.454,233.996,677.672,233.996L677.672,233.996z"/>
		</g>
		<g>
			<path fill="#FFFFFF" d="M695.391,210.984c-0.578,0-1.158-0.22-1.6-0.664l-13.003-13.026c-0.885-0.885-0.883-2.316,0.002-3.2
				c0.884-0.883,2.316-0.885,3.201,0.003l13.001,13.026c0.883,0.884,0.883,2.317-0.002,3.2
				C696.548,210.764,695.97,210.984,695.391,210.984L695.391,210.984z"/>
		</g>
		<g>
			<path fill="#FFFFFF" d="M718.477,193.338c-0.783,0-1.545-0.405-1.963-1.132l-9.205-15.943c-0.626-1.083-0.254-2.467,0.829-3.092
				c1.081-0.623,2.465-0.253,3.09,0.828l9.205,15.944c0.626,1.082,0.255,2.466-0.829,3.091
				C719.248,193.24,718.861,193.338,718.477,193.338L718.477,193.338z"/>
		</g>
		<g>
			<path fill="#FFFFFF" d="M745.316,182.267c-1,0-1.916-0.667-2.182-1.68l-4.753-17.778c-0.321-1.208,0.398-2.448,1.604-2.77
				c1.195-0.323,2.446,0.392,2.771,1.603l4.747,17.778c0.323,1.208-0.394,2.448-1.602,2.77
				C745.707,182.242,745.51,182.267,745.316,182.267L745.316,182.267z"/>
		</g>
	</g>
	<path fill="#FF9F00" d="M685.776,286.615c0-48.712,39.457-88.164,88.164-88.164c48.721,0,88.17,39.452,88.17,88.164
		c0,2.884-2.108,43.636-35.328,86.406c-9.726,12.905-8.12,38.858-8.033,38.858c-13.664,0-24.885,0-38.567,0
		c-4.179,0-8.353,0-12.521,0c-13.655,0-25.086,0-38.742,0c0.086,0,1.865-25.953-7.821-38.858
		C687.837,330.204,685.776,289.499,685.776,286.615z"/>
	<path fill="#FFC907" d="M773.94,411.879c-13.664,0-31.366,0-45.022,0c0.086,0,1.865-25.953-7.821-38.858
		c-33.259-42.817-35.32-83.522-35.32-86.406c0-48.712,39.457-88.164,88.164-88.164"/>
	<g>
		<path fill="#FFC907" d="M843.38,286.595h-7.735c0-34.01-27.681-61.678-61.705-61.678v-7.735
			C812.231,217.181,843.38,248.32,843.38,286.595L843.38,286.595z"/>
	</g>
	<g>
		<g>
			<g>
				<polygon fill="#174F78" points="793.196,418.772 785.566,417.511 800.63,326.363 808.261,327.624 793.196,418.772 				"/>
			</g>
			<g>
				<polygon fill="#174F78" points="754.681,418.772 739.616,327.624 747.247,326.363 762.312,417.511 754.681,418.772 				"/>
			</g>
		</g>
		<g>
			<path fill="#174F78" d="M803.946,339.197c-3.166,0-4.538-3.085-5.537-5.338c-0.419-0.939-1.287-2.894-1.779-2.894
				c-0.486,0-1.355,1.954-1.771,2.894c-0.999,2.253-2.368,5.338-5.531,5.338c-3.166,0-4.535-3.086-5.535-5.339
				c-0.418-0.938-1.287-2.893-1.776-2.893c-0.492,0-1.36,1.954-1.776,2.894c-1.003,2.253-2.374,5.338-5.54,5.338
				c-3.169,0-4.54-3.085-5.539-5.337c-0.419-0.939-1.29-2.895-1.784-2.895c-0.492,0-1.364,1.954-1.78,2.894
				c-1.002,2.253-2.376,5.338-5.542,5.338c-3.171,0-4.546-3.083-5.547-5.337c-0.419-0.939-1.293-2.895-1.79-2.895
				c-0.498,0-1.371,1.956-1.79,2.896c-1.002,2.252-2.376,5.335-5.544,5.335v-4.116c0.496,0,1.368-1.955,1.786-2.895
				c1.003-2.253,2.376-5.338,5.548-5.338s4.545,3.083,5.547,5.336c0.42,0.94,1.293,2.896,1.79,2.896
				c0.492,0,1.363-1.955,1.779-2.895c1.002-2.253,2.376-5.338,5.543-5.338c3.168,0,4.541,3.086,5.541,5.339
				c0.42,0.938,1.288,2.894,1.782,2.894c0.492,0,1.361-1.955,1.777-2.895c1.002-2.253,2.373-5.338,5.539-5.338
				c3.167,0,4.534,3.086,5.534,5.339c0.42,0.938,1.287,2.894,1.777,2.894c0.486,0,1.354-1.954,1.769-2.892
				c0.999-2.255,2.368-5.341,5.534-5.341c3.167,0,4.538,3.085,5.537,5.338c0.419,0.939,1.288,2.895,1.779,2.895V339.197
				L803.946,339.197z"/>
		</g>
	</g>
	<path fill="#103754" d="M818.84,412.361v46.095c0,3.153-2.557,5.718-5.723,5.718h-78.256c-3.155,0-5.714-2.565-5.714-5.718v-46.095
		H818.84z"/>
	<g>
		<path fill="#174F78" d="M820.643,421.329h-93.396c-2.496,0-4.52-2.023-4.52-4.519c0-2.497,2.023-4.519,4.52-4.519h93.396
			c2.496,0,4.519,2.022,4.519,4.519C825.161,419.306,823.139,421.329,820.643,421.329L820.643,421.329z"/>
	</g>
	<g>
		<path fill="#174F78" d="M820.643,436.39h-93.396c-2.496,0-4.52-2.023-4.52-4.519s2.023-4.519,4.52-4.519h93.396
			c2.496,0,4.519,2.023,4.519,4.519S823.139,436.39,820.643,436.39L820.643,436.39z"/>
	</g>
	<g>
		<path fill="#174F78" d="M820.643,451.457h-93.396c-2.496,0-4.52-2.022-4.52-4.519c0-2.496,2.023-4.519,4.52-4.519h93.396
			c2.496,0,4.519,2.023,4.519,4.519C825.161,449.435,823.139,451.457,820.643,451.457L820.643,451.457z"/>
	</g>
</g>
<path opacity="0.4" fill="#1E7075" d="M854.241,527.776h-3.381c-1.505-9.674-9.864-17.108-19.952-17.108H719.054v-0.003h-23.109
	c2.323,7.222,9.369,13.082,15.768,13.082c3.143,0,5.528-1.435,6.868-3.747h112.328c4.914,0,9.03,3.294,10.378,7.776H676.923v6.696
	c-42.323-0.57-84.646-1.144-126.967-1.711v-0.87l-7.542-0.002v0.706c-6.453,0.076-13.251-0.191-20.295-0.895
	c-9.902-0.984-19.222-2.682-27.596-4.888c-4.231,13.628-24.176,24.259-49.105,25.953l-0.013,3.258l0.327,0.005l53.763-0.005
	c0.654-2.115,2.59-3.661,4.924-3.661c2.861,0,5.182,2.323,5.187,5.183c0,2.863-2.332,5.182-5.187,5.182
	c-2.328,0-4.27-1.539-4.924-3.656h-53.763l-0.327,0.008l0.013,3.248c24.929,1.698,44.874,12.335,49.105,25.952
	c8.374-2.203,17.694-3.907,27.596-4.886c7.044-0.701,13.839-0.968,20.295-0.892v0.712h7.536v-0.863
	c42.32-0.573,84.65-1.144,126.973-1.714v7.803h164.87v3.109c0,0.013,0.004,0.026,0.004,0.042c-0.006,0.102-0.029,0.199-0.029,0.301
	c0,26.975-21.952,48.925-48.925,48.925H671.789h-91.967h-18.982c-17.963,0-32.575,14.614-32.575,32.58
	c0,17.963,14.611,32.575,32.575,32.575h63.984c0.188,0.024,0.372,0.058,0.57,0.058h61.241c5.922,0,10.741,4.82,10.741,10.742
	s-4.819,10.741-10.741,10.741h-60.931c-0.035,0-0.069-0.011-0.104-0.011c-0.071,0-0.139,0.011-0.207,0.011l0,0l0,0
	c-17.754,0.112-32.169,14.488-32.353,32.228H444.257v5.417v173.435v5.416h405.788v-5.416V765.156v-5.417H602.373
	c0.184-12.592,10.414-22.784,23.021-22.897h61.241c11.068,0,20.073-9.003,20.073-20.071c0-11.069-9.005-20.073-20.073-20.073H672.36
	c-0.188-0.024-0.374-0.058-0.57-0.058H560.841c-12.816,0-23.244-10.428-23.244-23.244c0-12.819,10.428-23.249,23.244-23.249h18.982
	h91.967h121.054c32.123,0,58.256-26.134,58.256-58.256c0-0.013-0.003-0.026-0.003-0.042c0.005-0.102,0.026-0.199,0.026-0.3v-3.109
	h3.119c13.746,0,24.888-10.111,24.888-22.571v-15.523C879.129,537.879,867.988,527.776,854.241,527.776z"/>
<g>
	<g>
		<g>
			<path fill="#174F78" d="M780.191,639.13h-213.02c-2.578,0-4.667-2.091-4.667-4.669c0-2.577,2.089-4.668,4.667-4.668h213.02
				c26.979,0,48.923-21.943,48.923-48.921c0-2.578,2.09-4.667,4.668-4.667c2.577,0,4.668,2.089,4.668,4.667
				C838.449,612.994,812.314,639.13,780.191,639.13L780.191,639.13z"/>
		</g>
		<g>
			<path fill="#174F78" d="M659.135,694.954H548.189c-17.962,0-32.577-14.616-32.577-32.577c0-17.967,14.614-32.584,32.577-32.584
				h110.946c2.577,0,4.666,2.091,4.666,4.668c0,2.578-2.089,4.669-4.666,4.669H548.189c-12.817,0-23.243,10.428-23.243,23.247
				c0,12.816,10.426,23.241,23.243,23.241h110.946c2.577,0,4.666,2.091,4.666,4.668S661.712,694.954,659.135,694.954
				L659.135,694.954z"/>
		</g>
		<g>
			<path fill="#174F78" d="M585.04,864.674c-2.578,0-4.667-2.091-4.667-4.669V749.058c0-17.961,14.614-32.579,32.576-32.579
				c2.577,0,4.666,2.092,4.666,4.67c0,2.577-2.089,4.667-4.666,4.667c-12.816,0-23.243,10.426-23.243,23.242v110.947
				C589.707,862.583,587.617,864.674,585.04,864.674L585.04,864.674z"/>
		</g>
		<g>
			<path fill="#174F78" d="M673.985,725.827h-61.241c-2.577,0-4.668-2.092-4.668-4.669c0-2.578,2.091-4.668,4.668-4.668h61.241
				c5.924,0,10.739-4.814,10.739-10.739s-4.815-10.739-10.739-10.739h-61.241c-2.577,0-4.668-2.091-4.668-4.668
				s2.091-4.668,4.668-4.668h61.241c11.068,0,20.075,9.007,20.075,20.075C694.06,716.82,685.053,725.827,673.985,725.827
				L673.985,725.827z"/>
		</g>
	</g>
	<g>
		<rect x="431.602" y="754.136" fill="#103754" width="405.79" height="178.853"/>
		<rect x="431.602" y="748.72" fill="#174F78" width="405.79" height="178.853"/>
		<g>
			<g>
				<rect x="461.68" y="783.812" fill="#103754" width="28.617" height="28.616"/>
				<rect x="501.308" y="783.812" fill="#103754" width="28.619" height="28.616"/>
				<rect x="540.935" y="783.812" fill="#103754" width="28.619" height="28.616"/>
				<rect x="580.569" y="783.812" fill="#103754" width="28.616" height="28.616"/>
				<rect x="620.188" y="783.812" fill="#103754" width="28.621" height="28.616"/>
				<rect x="659.821" y="783.812" fill="#103754" width="28.619" height="28.616"/>
				<rect x="699.446" y="783.812" fill="#103754" width="28.621" height="28.616"/>
				<rect x="739.075" y="783.812" fill="#103754" width="28.613" height="28.616"/>
				<rect x="778.702" y="783.812" fill="#103754" width="28.619" height="28.616"/>
			</g>
			<g>
				<rect x="461.68" y="823.327" fill="#103754" width="28.617" height="28.617"/>
				<rect x="501.308" y="823.327" fill="#103754" width="28.619" height="28.617"/>
				<rect x="540.935" y="823.327" fill="#103754" width="28.619" height="28.617"/>
				<rect x="580.569" y="823.327" fill="#103754" width="28.616" height="28.617"/>
				<rect x="620.188" y="823.327" fill="#103754" width="28.621" height="28.617"/>
				<rect x="659.821" y="823.327" fill="#103754" width="28.619" height="28.617"/>
				<rect x="699.446" y="823.327" fill="#103754" width="28.621" height="28.617"/>
				<rect x="739.075" y="823.327" fill="#103754" width="28.613" height="28.617"/>
				<rect x="778.702" y="823.327" fill="#103754" width="28.619" height="28.617"/>
			</g>
			<g>
				<rect x="461.68" y="862.84" fill="#103754" width="28.617" height="28.619"/>
				<polygon fill="#103754" points="676.59,862.84 659.821,862.84 501.308,862.84 501.308,891.459 659.821,891.459 676.59,891.459 
					688.44,891.459 688.44,862.84 				"/>
				<rect x="699.446" y="862.84" fill="#103754" width="28.621" height="28.619"/>
				<rect x="739.075" y="862.84" fill="#103754" width="28.613" height="28.619"/>
				<rect x="778.702" y="862.84" fill="#103754" width="28.619" height="28.619"/>
			</g>
		</g>
		<g>
			<g>
				<rect x="461.68" y="778.888" fill="#1E75AF" width="28.617" height="28.621"/>
				<rect x="501.308" y="778.888" fill="#1E75AF" width="28.619" height="28.621"/>
				<rect x="540.935" y="778.888" fill="#1E75AF" width="28.619" height="28.621"/>
				<rect x="580.569" y="778.888" fill="#1E75AF" width="28.616" height="28.621"/>
				<rect x="620.188" y="778.888" fill="#1E75AF" width="28.621" height="28.621"/>
				<rect x="659.821" y="778.888" fill="#1E75AF" width="28.619" height="28.621"/>
				<rect x="699.446" y="778.888" fill="#1E75AF" width="28.621" height="28.621"/>
				<rect x="739.075" y="778.888" fill="#1E75AF" width="28.613" height="28.621"/>
				<rect x="778.702" y="778.888" fill="#1E75AF" width="28.619" height="28.621"/>
			</g>
			<g>
				<rect x="461.68" y="818.402" fill="#1E75AF" width="28.617" height="28.619"/>
				<rect x="501.308" y="818.402" fill="#1E75AF" width="28.619" height="28.619"/>
				<rect x="540.935" y="818.402" fill="#1E75AF" width="28.619" height="28.619"/>
				<rect x="580.569" y="818.402" fill="#1E75AF" width="28.616" height="28.619"/>
				<rect x="620.188" y="818.402" fill="#1E75AF" width="28.621" height="28.619"/>
				<rect x="659.821" y="818.402" fill="#1E75AF" width="28.619" height="28.619"/>
				<rect x="699.446" y="818.402" fill="#1E75AF" width="28.621" height="28.619"/>
				<rect x="739.075" y="818.402" fill="#1E75AF" width="28.613" height="28.619"/>
				<rect x="778.702" y="818.402" fill="#1E75AF" width="28.619" height="28.619"/>
			</g>
			<g>
				<rect x="461.68" y="857.914" fill="#1E75AF" width="28.617" height="28.623"/>
				<polygon fill="#1E75AF" points="676.59,857.914 659.821,857.914 501.308,857.914 501.308,886.537 659.821,886.537 
					676.59,886.537 688.44,886.537 688.44,857.914 				"/>
				<rect x="699.446" y="857.914" fill="#1E75AF" width="28.621" height="28.623"/>
				<rect x="739.075" y="857.914" fill="#1E75AF" width="28.613" height="28.623"/>
				<rect x="778.702" y="857.914" fill="#1E75AF" width="28.619" height="28.623"/>
			</g>
		</g>
	</g>
	<g>
		<path fill="#103754" d="M481.874,515.794c-4.234,13.627-24.178,24.259-49.107,25.952l-0.013,3.258l0.327,0.005l53.76-0.005
			c0.657-2.114,2.593-3.661,4.927-3.661c2.86,0,5.182,2.323,5.187,5.184c0,2.862-2.332,5.181-5.187,5.181
			c-2.328,0-4.27-1.539-4.927-3.656h-53.76l-0.327,0.008l0.013,3.247c24.929,1.698,44.874,12.335,49.107,25.953
			c8.371-2.204,17.689-3.907,27.593-4.886c9.829-0.979,19.201-1.141,27.792-0.651c-1.24-7.672-1.946-16.2-1.929-25.191
			c0-8.999,0.688-17.521,1.921-25.196c-8.583,0.492-17.956,0.327-27.785-0.655C499.563,519.698,490.245,518,481.874,515.794z"/>
		<path fill="#DE3F18" d="M778.273,568.081c47.786-0.016,47.782-43.094-0.019-43.094c-80.338-1.083-160.671-2.167-241.002-3.245
			c0,16.527,0,33.057,0,49.589C617.583,570.243,697.922,569.162,778.273,568.081z"/>
		<rect x="529.758" y="520.872" fill="#FD6120" width="7.542" height="51.321"/>
		<path fill="#FD6120" d="M664.269,577.42h177.32c13.746,0,24.888-10.11,24.888-22.571v-15.522
			c0-12.466-11.142-22.569-24.888-22.569h-177.32V577.42z"/>
		<path fill="#174F78" d="M706.403,499.646h-23.11c2.323,7.222,9.371,13.081,15.769,13.081
			C705.432,512.727,708.727,506.868,706.403,499.646z"/>
		<g>
			<path fill="#174F78" d="M833.807,585.196c-2.577,0-4.668-2.089-4.668-4.667v-60.66c0-6.003-4.883-10.887-10.883-10.887H696.151
				c-2.577,0-4.666-2.089-4.666-4.667c0-2.578,2.089-4.667,4.666-4.667h122.105c11.15,0,20.22,9.071,20.22,20.221v60.66
				C838.476,583.106,836.385,585.196,833.807,585.196L833.807,585.196z"/>
		</g>
	</g>
</g>
</svg>
